<svg xmlns="http://www.w3.org/2000/svg" xmlns:xlink="http://www.w3.org/1999/xlink">
  <defs>
    <symbol id="arrow-right" xmlns="http://www.w3.org/2000/svg" viewBox="0 0 256 256">
      <path d="m221.66 133.66-72 72a8 8 0 0 1-11.32-11.32L196.69 136H40a8 8 0 0 1 0-16h156.69l-58.35-58.34a8 8 0 0 1 11.32-11.32l72 72a8 8 0 0 1 0 11.32Z"/>
    </symbol>

    <symbol id="buildings" xmlns="http://www.w3.org/2000/svg" viewBox="0 0 256 256">
      <path d="M240 208h-16V96a16 16 0 0 0-16-16h-64V32a16 16 0 0 0-24.88-13.32L39.12 72A16 16 0 0 0 32 85.34V208H16a8 8 0 0 0 0 16h224a8 8 0 0 0 0-16ZM208 96v112h-64V96ZM48 85.34 128 32v176H48ZM112 112v16a8 8 0 0 1-16 0v-16a8 8 0 1 1 16 0Zm-32 0v16a8 8 0 0 1-16 0v-16a8 8 0 1 1 16 0Zm0 56v16a8 8 0 0 1-16 0v-16a8 8 0 0 1 16 0Zm32 0v16a8 8 0 0 1-16 0v-16a8 8 0 0 1 16 0Z"/>
    </symbol>

    <symbol id="disc" xmlns="http://www.w3.org/2000/svg" viewBox="0 0 256 256">
      <path d="M128 24a104 104 0 1 0 104 104A104.11 104.11 0 0 0 128 24Zm39.2 96a39.77 39.77 0 0 0-5.84-14l34.23-34.24a87.54 87.54 0 0 1 20 48.28Zm-15.2 8a24 24 0 1 1-24-24 24 24 0 0 1 24 24Zm-24 88a88 88 0 1 1 56.28-155.6L150 94.64A40 40 0 1 0 167.2 136h48.43A88.11 88.11 0 0 1 128 216Z"/>
    </symbol>

    <symbol id="fire" xmlns="http://www.w3.org/2000/svg" viewBox="0 0 256 256">
      <path d="M183.89 153.34a57.6 57.6 0 0 1-46.56 46.55 8.75 8.75 0 0 1-1.33.11 8 8 0 0 1-1.32-15.89c16.57-2.79 30.63-16.85 33.44-33.45a8 8 0 0 1 15.78 2.68ZM216 144a88 88 0 0 1-176 0c0-27.92 11-56.47 32.66-84.85a8 8 0 0 1 11.93-.89l24.12 23.41 22-60.41a8 8 0 0 1 12.63-3.41C165.21 36 216 84.55 216 144Zm-16 0c0-46.09-35.79-85.92-58.21-106.33l-22.27 61.07a8 8 0 0 1-13.09 3L80.06 76.16C64.09 99.21 56 122 56 144a72 72 0 0 0 144 0Z"/>
    </symbol>
  
    <symbol id="garage" xmlns="http://www.w3.org/2000/svg" viewBox="0 0 256 256">
      <path d="M240 192h-8V98.67a16 16 0 0 0-7.12-13.31l-88-58.67a16 16 0 0 0-17.75 0l-88 58.67A16 16 0 0 0 24 98.67V192h-8a8 8 0 0 0 0 16h224a8 8 0 0 0 0-16ZM40 98.67 128 40l88 58.66V192h-24v-56a8 8 0 0 0-8-8H72a8 8 0 0 0-8 8v56H40ZM176 144v16h-40v-16Zm-56 16H80v-16h40Zm-40 16h40v16H80Zm56 0h40v16h-40Z"/>
    </symbol>

    <symbol id="paint-roller" xmlns="http://www.w3.org/2000/svg" viewBox="0 0 256 256">
      <path d="M232 88h-16V64a16 16 0 0 0-16-16H48a16 16 0 0 0-16 16v24H16a8 8 0 0 0 0 16h16v24a16 16 0 0 0 16 16h152a16 16 0 0 0 16-16v-24h16v50l-100.4 28.65A16.07 16.07 0 0 0 120 198v34a8 8 0 0 0 16 0v-34l100.4-28.68A16.07 16.07 0 0 0 248 154v-50a16 16 0 0 0-16-16Zm-32 40H48V64h152v64Z"/>
    </symbol>

    <symbol id="paper-plane-tilt" xmlns="http://www.w3.org/2000/svg" viewBox="0 0 256 256">
      <path d="M227.32 28.68a16 16 0 0 0-15.66-4.08h-.15L19.57 82.84a16 16 0 0 0-2.49 29.8L102 154l41.3 84.87a15.86 15.86 0 0 0 14.44 9.13q.69 0 1.38-.06a15.88 15.88 0 0 0 14-11.51l58.2-191.94v-.15a16 16 0 0 0-4-15.66Zm-69.49 203.17-.05.14v-.07l-40.06-82.3 48-48a8 8 0 0 0-11.31-11.31l-48 48-82.33-40.06h-.07.14L216 40Z"/>
    </symbol>

    <symbol id="star" xmlns="http://www.w3.org/2000/svg" viewBox="0 0 256 256">
      <path d="m234.29 114.85-45 38.83L203 211.75a16.4 16.4 0 0 1-24.5 17.82L128 198.49l-50.53 31.08A16.4 16.4 0 0 1 53 211.75l13.76-58.07-45-38.83A16.46 16.46 0 0 1 31.08 86l59-4.76 22.76-55.08a16.36 16.36 0 0 1 30.27 0l22.75 55.08 59 4.76a16.46 16.46 0 0 1 9.37 28.86Z"/>
    </symbol>

    <symbol id="wall" xmlns="http://www.w3.org/2000/svg" viewBox="0 0 256 256">
      <path d="M224 48H32a8 8 0 0 0-8 8v144a8 8 0 0 0 8 8h192a8 8 0 0 0 8-8V56a8 8 0 0 0-8-8ZM88 144v-32h80v32Zm-48 0v-32h32v32Zm144-32h32v32h-32Zm32-16h-80V64h80Zm-96-32v32H40V64Zm-80 96h80v32H40Zm96 32v-32h80v32Z"/>
    </symbol>
  </defs>
</svg>
