<?xml version="1.0" standalone="no"?>
<!DOCTYPE svg PUBLIC "-//W3C//DTD SVG 20010904//EN"
 "http://www.w3.org/TR/2001/REC-SVG-20010904/DTD/svg10.dtd">
<svg version="1.0" xmlns="http://www.w3.org/2000/svg"
 width="512.000000pt" height="512.000000pt" viewBox="0 0 512.000000 512.000000"
 preserveAspectRatio="xMidYMid meet">
<metadata>
Created by potrace 1.14, written by Peter Selinger 2001-2017
</metadata>
<g transform="translate(0.000000,512.000000) scale(0.100000,-0.100000)"
fill="#000000" stroke="none">
<path d="M335 5110 c-4 -6 -10 -8 -15 -5 -5 3 -11 1 -15 -4 -3 -5 -14 -8 -25
-6 -11 2 -20 0 -20 -4 0 -4 -17 -16 -38 -25 -44 -20 -168 -136 -145 -136 4 0
0 -6 -9 -12 -20 -17 -62 -124 -53 -137 3 -6 1 -11 -4 -11 -8 0 -11 -672 -11
-2206 0 -1213 3 -2203 8 -2200 4 2 7 -11 6 -30 -1 -19 2 -37 7 -40 5 -3 9 -14
9 -25 0 -10 4 -19 10 -19 5 0 9 -3 8 -7 -3 -10 18 -47 40 -75 37 -45 112 -113
112 -101 0 3 9 -2 21 -13 12 -10 23 -18 25 -16 2 1 21 -6 42 -15 35 -17 159
-18 2276 -18 1789 0 2240 3 2244 13 2 6 8 9 13 6 6 -3 21 2 36 11 15 10 22 12
18 4 -5 -7 4 -4 18 7 15 10 27 23 27 27 0 5 4 6 9 3 15 -10 112 96 141 155 16
31 26 59 23 63 -4 3 -2 6 3 6 5 0 12 12 14 27 2 16 5 1030 5 2255 0 1769 -3
2230 -12 2240 -7 6 -13 20 -13 30 0 10 -4 18 -10 18 -5 0 -10 8 -10 18 0 31
-114 157 -132 145 -6 -3 -8 -1 -5 4 4 6 -1 14 -11 18 -9 3 -18 5 -18 3 -1 -2
-11 5 -21 15 -11 9 -23 14 -26 10 -4 -3 -7 -1 -7 6 0 7 -6 11 -14 8 -7 -3 -19
0 -25 6 -16 16 -4467 22 -4476 7z"/>
</g>
</svg>
