<?xml version="1.0" standalone="no"?>
<!DOCTYPE svg PUBLIC "-//W3C//DTD SVG 20010904//EN"
 "http://www.w3.org/TR/2001/REC-SVG-20010904/DTD/svg10.dtd">
<svg version="1.0" xmlns="http://www.w3.org/2000/svg"
 width="700.000000pt" height="700.000000pt" viewBox="0 0 700.000000 700.000000"
 preserveAspectRatio="xMidYMid meet">
<metadata>
Created by potrace 1.14, written by Peter Selinger 2001-2017
</metadata>
<g transform="translate(0.000000,700.000000) scale(0.100000,-0.100000)"
fill="#000000" stroke="none">
<path d="M461 6993 c-1 -6 -19 -14 -41 -18 -22 -4 -42 -11 -46 -16 -3 -5 -14
-9 -25 -9 -10 0 -19 -5 -19 -12 0 -6 -3 -8 -7 -5 -3 4 -21 -5 -40 -19 -18 -14
-33 -22 -33 -18 0 4 -11 -5 -25 -20 -13 -14 -29 -26 -35 -26 -6 0 -15 -11 -20
-25 -5 -14 -17 -25 -25 -25 -9 0 -13 -4 -10 -10 3 -5 1 -10 -5 -10 -6 0 -8 -5
-4 -12 4 -7 3 -8 -5 -4 -7 5 -15 -4 -22 -23 -6 -17 -14 -31 -18 -31 -4 0 -14
-18 -21 -40 -7 -21 -16 -37 -20 -35 -4 2 -6 -7 -4 -20 1 -14 -2 -25 -8 -25 -6
0 -7 -7 -4 -16 3 -9 2 -12 -4 -9 -7 4 -9 -3 -6 -19 3 -15 0 -26 -6 -26 -6 0
-5 -7 3 -17 10 -12 10 -15 1 -9 -10 6 -11 -585 -8 -3006 2 -1657 5 -3023 7
-3035 1 -13 7 -23 12 -23 4 0 5 -4 2 -10 -3 -5 -2 -10 4 -10 5 0 8 -9 6 -20
-2 -11 0 -20 6 -20 5 0 9 -9 9 -20 0 -11 5 -20 11 -20 5 0 7 -5 4 -10 -3 -6 1
-13 9 -16 9 -3 13 -11 9 -17 -3 -5 1 -15 9 -21 8 -6 17 -19 21 -29 4 -11 12
-15 19 -11 7 5 9 2 6 -7 -6 -15 16 -42 26 -32 3 4 6 -1 6 -10 0 -8 9 -19 20
-22 11 -4 18 -11 15 -16 -4 -5 1 -9 9 -9 9 0 16 -4 16 -10 0 -5 6 -10 14 -10
8 0 17 -7 20 -16 3 -8 10 -12 16 -9 5 3 10 3 10 -2 0 -9 48 -33 67 -33 7 0 13
-5 13 -11 0 -6 7 -9 15 -5 8 3 20 0 27 -7 7 -7 24 -14 38 -16 14 -3 1383 -6
3043 -8 2414 -2 3017 -1 3011 9 -5 9 -2 9 9 -1 10 -7 17 -9 17 -3 0 6 11 9 25
8 13 -2 22 1 19 5 -4 8 25 14 49 10 4 0 7 4 7 10 0 5 4 8 9 5 5 -3 14 1 21 9
7 8 21 15 31 15 11 0 19 5 19 10 0 6 6 10 13 10 7 0 27 13 45 30 18 16 35 30
38 30 3 0 37 35 74 77 8 10 15 21 15 26 0 4 5 11 12 15 12 7 36 58 37 77 1 6
6 16 13 23 6 7 10 21 8 32 -2 11 1 19 8 17 7 -1 12 13 12 40 0 22 3 39 7 37 4
-3 7 1346 7 2996 0 2329 -3 3000 -12 3000 -8 0 -8 3 -2 8 14 10 17 32 5 32 -5
0 -7 7 -4 15 4 8 2 15 -3 15 -5 0 -9 8 -9 18 -1 21 -7 45 -14 52 -3 3 -11 16
-18 29 -11 19 -11 22 0 15 7 -4 3 4 -9 18 -13 13 -23 28 -23 34 0 10 -43 65
-81 103 -55 55 -112 94 -124 84 -4 -5 -5 -3 -1 4 4 8 -7 16 -34 24 -22 7 -40
15 -40 18 0 4 -12 8 -27 9 -15 1 -29 6 -33 11 -3 6 -18 8 -33 7 -15 -2 -27 1
-27 5 0 5 -1341 9 -3016 9 -2001 0 -3013 -3 -3009 -10 3 -6 2 -10 -4 -10 -5 0
-12 6 -14 13 -4 8 -6 8 -6 0z"/>
</g>
</svg>
